<svg width="14" height="15" viewBox="0 0 14 15" fill="none" xmlns="http://www.w3.org/2000/svg">
<path d="M13.2961 7.50217C13.1105 7.50217 12.9326 7.58117 12.8013 7.72178C12.6701 7.86239 12.5963 8.0531 12.5963 8.25196V12.7507C12.5963 12.9495 12.5226 13.1402 12.3914 13.2808C12.2601 13.4214 12.0821 13.5004 11.8966 13.5004H2.09939C1.91379 13.5004 1.7358 13.4214 1.60456 13.2808C1.47332 13.1402 1.39959 12.9495 1.39959 12.7507V2.2537C1.39959 2.05484 1.47332 1.86413 1.60456 1.72352C1.7358 1.58291 1.91379 1.50391 2.09939 1.50391H6.29817C6.48377 1.50391 6.66177 1.42492 6.793 1.28431C6.92424 1.14369 6.99797 0.952985 6.99797 0.75413C6.99797 0.555275 6.92424 0.364565 6.793 0.223954C6.66177 0.0833422 6.48377 0.00434749 6.29817 0.00434749H2.09939C1.5426 0.00434749 1.00861 0.241332 0.614898 0.663166C0.221185 1.085 0 1.65713 0 2.2537V12.7507C0 13.3472 0.221185 13.9193 0.614898 14.3412C1.00861 14.763 1.5426 15 2.09939 15H11.8966C12.4533 15 12.9873 14.763 13.381 14.3412C13.7748 13.9193 13.9959 13.3472 13.9959 12.7507V8.25196C13.9959 8.0531 13.9222 7.86239 13.791 7.72178C13.6597 7.58117 13.4817 7.50217 13.2961 7.50217ZM2.79919 8.07201V11.2511C2.79919 11.4499 2.87292 11.6407 3.00415 11.7813C3.13539 11.9219 3.31339 12.0009 3.49899 12.0009H6.46613C6.55822 12.0014 6.64952 11.9825 6.73478 11.9452C6.82004 11.9079 6.89759 11.8529 6.96298 11.7834L11.8056 6.58744L13.793 4.50304C13.8586 4.43334 13.9107 4.35041 13.9462 4.25905C13.9817 4.16768 14 4.06968 14 3.9707C14 3.87172 13.9817 3.77372 13.9462 3.68235C13.9107 3.59098 13.8586 3.50805 13.793 3.43835L10.8259 0.221784C10.7608 0.151508 10.6834 0.0957289 10.5981 0.0576635C10.5129 0.019598 10.4214 0 10.329 0C10.2366 0 10.1452 0.019598 10.0599 0.0576635C9.9746 0.0957289 9.8972 0.151508 9.83215 0.221784L7.85872 2.34367L3.00213 7.53966C2.93727 7.60972 2.88596 7.69281 2.85113 7.78416C2.81631 7.87551 2.79866 7.97333 2.79919 8.07201ZM10.329 1.81132L12.3094 3.93321L11.3157 4.9979L9.33529 2.87601L10.329 1.81132ZM4.19878 8.37942L8.34858 3.93321L10.329 6.05509L6.17921 10.5013H4.19878V8.37942Z" fill="#2F88FF"/>
</svg>
