<svg width="12" height="15" viewBox="0 0 12 15" fill="none" xmlns="http://www.w3.org/2000/svg">
<path d="M9 1.75V3H11.25C11.4489 3 11.6397 3.07902 11.7803 3.21967C11.921 3.36032 12 3.55109 12 3.75C12 3.94891 11.921 4.13968 11.7803 4.28033C11.6397 4.42098 11.4489 4.5 11.25 4.5H0.75C0.551088 4.5 0.360322 4.42098 0.21967 4.28033C0.0790175 4.13968 0 3.94891 0 3.75C0 3.55109 0.0790175 3.36032 0.21967 3.21967C0.360322 3.07902 0.551088 3 0.75 3H3V1.75C3 0.784 3.784 0 4.75 0H7.25C8.216 0 9 0.784 9 1.75ZM2.496 6.675L3.156 13.275C3.1622 13.3367 3.19112 13.3939 3.23714 13.4355C3.28315 13.4771 3.34298 13.5001 3.405 13.5H8.595C8.65702 13.5001 8.71685 13.4771 8.76286 13.4355C8.80888 13.3939 8.8378 13.3367 8.844 13.275L9.504 6.675C9.5288 6.48127 9.62819 6.30486 9.78103 6.18328C9.93388 6.06169 10.1281 6.00453 10.3225 6.02394C10.5168 6.04334 10.6959 6.13779 10.8217 6.2872C10.9475 6.43661 11.01 6.6292 10.996 6.824L10.336 13.424C10.2933 13.856 10.0914 14.2566 9.76957 14.5479C9.44776 14.8392 9.02908 15.0004 8.595 15H3.405C2.97121 14.9999 2.5529 14.8388 2.23121 14.5478C1.90952 14.2567 1.70738 13.8566 1.664 13.425L1.004 6.825C0.991476 6.7257 0.998953 6.6249 1.02599 6.52853C1.05303 6.43217 1.09908 6.34219 1.16144 6.2639C1.22379 6.18561 1.30118 6.12059 1.38905 6.07268C1.47692 6.02476 1.5735 5.99492 1.67308 5.98491C1.77266 5.9749 1.87325 5.98492 1.9689 6.01438C2.06455 6.04385 2.15333 6.09216 2.23002 6.15647C2.30671 6.22078 2.36975 6.29979 2.41543 6.38884C2.46111 6.4779 2.48851 6.57519 2.496 6.675ZM4.5 1.75V3H7.5V1.75C7.5 1.6837 7.47366 1.62011 7.42678 1.57322C7.37989 1.52634 7.3163 1.5 7.25 1.5H4.75C4.6837 1.5 4.62011 1.52634 4.57322 1.57322C4.52634 1.62011 4.5 1.6837 4.5 1.75Z" fill="#2F88FF"/>
</svg>
