<svg width="56" height="56" viewBox="0 0 56 56" fill="none" xmlns="http://www.w3.org/2000/svg">
<path fill-rule="evenodd" clip-rule="evenodd" d="M28 0.5C12.8118 0.5 0.5 12.8118 0.5 28C0.5 43.1882 12.8118 55.5 28 55.5C43.1882 55.5 55.5 43.1882 55.5 28C55.5 12.8118 43.1882 0.5 28 0.5ZM18.375 21.125C18.375 19.861 18.624 18.6094 19.1077 17.4417C19.5914 16.2739 20.3003 15.2129 21.1941 14.3191C22.0879 13.4253 23.1489 12.7164 24.3167 12.2327C25.4844 11.749 26.736 11.5 28 11.5C29.264 11.5 30.5156 11.749 31.6833 12.2327C32.8511 12.7164 33.9121 13.4253 34.8059 14.3191C35.6997 15.2129 36.4086 16.2739 36.8923 17.4417C37.376 18.6094 37.625 19.861 37.625 21.125C37.625 23.6777 36.6109 26.1259 34.8059 27.9309C33.0009 29.7359 30.5527 30.75 28 30.75C25.4473 30.75 22.9991 29.7359 21.1941 27.9309C19.3891 26.1259 18.375 23.6777 18.375 21.125ZM45.2095 41.706C43.1509 44.2955 40.534 46.3864 37.554 47.8226C34.574 49.2587 31.308 50.0031 28 50C24.692 50.0031 21.426 49.2587 18.446 47.8226C15.466 46.3864 12.849 44.2955 10.7905 41.706C15.2483 38.5077 21.3312 36.25 28 36.25C34.6688 36.25 40.7517 38.5077 45.2095 41.706Z" fill="#BCBCBC"/>
</svg>
